<svg version="1.2" xmlns="http://www.w3.org/2000/svg" viewBox="0 0 1552 1890" width="1552" height="1890"><style>.a{fill:#ff3756}</style><path fill-rule="evenodd" class="a" d="m1549 1170c-17.2 10-36.6 12.6-61.6 5.4-7.4-2-15-4-19-6.8-4.6-3.4-5.2-17.2-0.8-25.4 6-11.2-7-17.6-17.6-17.6-10.8 0-7.2 3.6-32-21.2-16.2-13.4-41.4-25.4-59.2-40-27.8-22.8-59.6-22.6-75-20.4-24.8 3.6-71.6 35.8-110.6 39.4-39 3.4-56.8 10.6-56.8 10.6 0 0 56.8 14 67.4 28.2 10.8 14 18.8 30 17.8 42.2-1.6 20.4-32 59.8-39 84.6-7 24.6-10.6 31.6-10.6 42.2 0 10.6-21.2 17.6-39 28.2-17.8 10.6-17.8 17.6-42.6 31.6-24.8 14.2-21.2 17.8-32 14.2-10.6-3.6-7-14.2-3.4-28.2 3.4-14 10.6-35.2 17.6-42.2 7.2-7.2 17.8 0 24.8 0 7.2 0 17.8 0 17.8-10.6 0-10.6-3.6-14.2 7.2-21.2 10.6-7 22.2-17.6 28.8-35.2 6.6-17.6 27.8-42.2 17.2-56.4-10.6-14-28.4-14-78-10.6-49.6 3.6-78.8-21.6-78.8-21.6 0 0-7.8 12-20.2 29.8l31 117.8c1.4 5.6-2 11.2-7.4 12.6q-1.4 0.4-2.6 0.4c-4.6 0-8.8-3.2-10-7.8l-26.4-100.8c-27.8 39-66.2 89.6-94.8 114.2-50.2 42.8-95.8 51.8-113.6 62.8-15.4 9.6-14.8 13.4-12.8 22.4 2.4 11.2 48 61.2-6 136.4-54 75.4-84.2 69.2-68.4 106.8 15.8 37.6 84.2 97.8 127.6 139.4 34.4 25.8 37 45.4 27.8 62.6 0 0 32 25 46.4 42.4 6.8 8.2 0 10.8-13.2 11.6h-72.6c-32-23.4-19.8-60-10.4-66.6 10-6.8-21.6 5.2-33.2-14-13.4-19.6-48.6-57-80.6-84.6-54-42.2-89-68.2-108.2-79.8-19.4-11.4-11.6-19.2-4-30.6 7.8-11.6 48.4-43.6 52.2-82-39.8-3.8-81.4-14.8-116.6-32.8v0.2c0 0-25.8-10.8-51-35.6q-7-6.8-13-14.2c-20.6-25.4-37.4-61.4-34.2-110.2 0-1.4 0.2-2.6 0.2-3.8q0.2-1.6 0.4-2.6 0.2-1.6 0.4-3.4c-4.6-1-49-11.8-74.2 0.2-26.4 12.6-49.2 59.8-81.4 84.6-31 23.6-46.4 29.2-60.6 53.8-14.2 24.6-33.2 94.8-82.2 116-48.8 21.2-79.8 5.4-79.8 5.4 15.8-14 40-25.4 57.8-50 17.8-24.6 30-72.4 37-93.6 7.2-21.2 46.2-112.8 99.4-151.4 53.2-38.8 106.4-24.8 134.8-14.2 25.6 9.6 51 22.8 61.4 0.2 9-20.8 22.8-42 37.2-60.6 12.6-17.2 27.2-34.4 43.2-48.8q1-1 2.2-1.8 0-0.2 0.2-0.2 0.2-0.4 0.6-0.6 0.6-0.4 1.2-1h0.2c19-15.6 53-35.2 82.8-51.2-16.4-15.2-21.8-39.2-20.8-58.4 1.6-30.8 14.8-42 11.2-73.4-1-9.8-3.4-18.6-6-26.8-76.4-49.4-209 138.2-287.4 16.4 19.4-1.6 41.4-9.4 62.4-41.8 20.8-32.4 4.6-101.2 99.8-99.2 72.6 1.6 42.6-150.4 195.6-139.4-0.2 0.6-17.4 42.8-48.8 44 0 0 67 20.6 86.4-43 19.6-63.4 54.6-70.6 91.4-63.4 20.2 3.8 28 27.8 28 27.8 6.4-3.8 14.8-7 12.6-24.8-1.8-13.6 7.8-22.4 8-22.4-11.6-5.6-22-9.8-31.8-12.8 2.8-12.2 13.4-35 28-53.4l-31.4-119.6c-1.6 3.8-6.4 7.8-10.6 8.8-3.2 2.6-6.2 7.6-7.8 20.6v0.4c-3.6 31.8 0 42.4-7 74-7.2 31.8-10.8 31.8-10.8 49.4 0.8 4.8 1.4 8.4 2 12.2-31.4-1.6-51 10.2-62 20.4-0.4-18.2 10.8-33.4 14-39.6 3.6-7.2 3.6-35.4 10.6-60 0.2-1 0.6-2 0.8-3 7.2-24.6 21.8-74.2 26.6-89 0.4-1 0.8-2.4 1-3.2 2.8-8.6 3.8-28.4 9.6-39.4 1.4-2.4 2.6-5 4.6-6.4 4-2.6 8.2-5.4 12.6-8l-58.4-222.6-47.6-49.2 21.6-91.2 62.6 64.6-16.8 69.8 2.6 9.8c0 0 37 140 55 208.6 3-1 5.8-1.2 8-0.2 7 3.6 3.4 14 3.4 14 0 0 5.8 6.6 2.6 14.6 5.6 4.4 1.6 12.4 1.6 12.4 0 0 6 5-1.8 13.2l31.8 121.6c11.6-8.8 23.4-17 50.4-20 32-3.4 67.4 14.2 67.4 14.2 3.6-21.2 7.2-28.2 7.2-28.2 0 0 5.4 12.8 16 19.8 19 12.6 8.6 35.4 26.4 49.6 9.8 7.8 14.2 18.6 28.4 29.2 14.2 10.6 28.4 14.2 28.4 31.8 0 17.6 3.6 28.2 10.6 52.8 7.2 24.6 3.6 35.2 24.8 49.4 21.4 14 32 14 28.4 45.8 7.2 3.4 14.2 28.2-24.8 28.2-7 17.6-35.4 17.6-42.6 0l-7-17.8c0 0-14.2-7-32-28-17.6-21.2-28.2-21.2-28.2-21.2 0 0 21.2 42.2 35.4 70.4 14.2 28.2 7 45.8 39 70.4 31.8 24.8 31.8 24.8 56.8 63.4 8 19.8 21.2 21.2 28.2 42.4 39.2 0 56.8 14.8 88.8 9.2 31.8-5.6 71-19.8 102.8-5.6 32 14 66.8 37.2 80.8 45 37.8 23.6 67.4 46 89.4 67.6 19.8 19.4 21.4 21.2 28.4 24.8 7.2 3.4 9 12.8 14 15.6 7 3.8 40 23.6 28.4 32.2zm-907.6-386.4c0 0 21.2 27.8 71 19 20.2-26.8 23.4-24.8 27.2-26.8 21.8-5.4 31.2-3 38.2-7.8 4.2-2.6 5.6-11 6.2-14.4 0.6-4.4 0.4-8.2 0-12.4 7.8-5.8 6.8-4.4 6-7.6-1.2-3.8-2.2-7.2-7-17.8-19.4 11.8-38.4 20.2-46.8 9.4-5-6.6-9.6-18-18.2-13.6-8.6 4.4-8.2 13.6-6 31 2.2 17.4-44.4 1.2-44.4 1.2 0 0-0.2 16.4-26.2 39.8zm-10.2 222.8c0 0 31.4 7.8 48.4 20.2 2.4-5.2 7.2-32.8 7.6-37.8 3.4-37.2 6.2-33.6 17.6-56.8-23.2-23-23.6-34.6-31-46.4-5 14.8-21.4 41.4-42.6 52 5.8 23.8 0 68.8 0 68.8zm10.4 328c-12.2-6.2-29.6-18.4-42.8-39.2-4.6 8.4-9.4 16.6-14.2 24.2-25 38.8-28.4 28.2-46.2 35.2-17.8 7-14.2 14.2-14.2 28.2 0 14-7 42.2-7 63.4 0 21.2 10.6 35.2 24.8 38.8 14.2 3.6 10.8-8.6 10.6-14-0.2-5.6 3-20.2 5.2-27.2 2.2-6.4 5.4-8.2 16-25.8 10.8-17.6 3.6-17.6 17.8-38.8 7.4-11 26-26.2 50-44.8zm105.8-124.2c-12.4-23.8-56.2-14.6-74.6-5.2-26.8 13.6-45.2 40.6-61.4 68.4 6 12.6 19.6 29.8 47.2 48 17.6-13.4 42.8-32.4 57.2-44.2 27.8-23.4 44-43.4 31.6-67zm53.4-28.2c-11.2-58.6-79.8-101.4-114.2-124.2-23.4-15.4-53.6-9.8-68.8-9.4 48.6 38.4 41.4 85.4 99.8 110 31 12.2 73.6 20.2 80.8 45.6 3.2-6.8 4.2-12.6 2.4-22zm75-438.4c-8.6-18.2-19.2-13.2-19.2-13.2 0 0 1.4 2.2 0.2 7.6-2.2 8.2-10 10.6-17.2 9.8-12.2 2.2-13.4 6-11.2 28.4 1.8 19-0.8 38.8-3.4 45.8-2.8 7.2-10 25.2-17 46.4-7.2 21.2-7.2 39.8-7.2 39.8 0 0-10.8-27.6-28.8-36.4-19-9.4-30.4-41.6-41.8-35.6-13.2 5.6-25.2 12.6-26.8 33.2 0.8 15.4 33.4 61.8 67.4 81.4 34 19.6 44.8 25.2 62.4 21.8 17.8-3.6 12.4-18.8 24.4-58.4 10.6-35.2 2.8-99.4 6.4-110 3.4-10.4 12.8-11.8 18-19.4 8.6-12.4 2.6-23-6.2-41.2zm-208.2 295.8l0.4-0.4z"/></svg>