<?xml version="1.0" standalone="no"?>
<svg id="Beeldmerk_Universiteit_Utrecht" width="440" height="440" viewBox="0 0 110 110"
xmlns="http://www.w3.org/2000/svg" version="1.1">
  
<defs id="defs6">
<clipPath clipPathUnits="userSpaceOnUse" id="clipPathMasker">
<path id="masker" d="M 105,55 A 50,50 0 1 1 5,55 50,50 0 1 1 105,55" />
</clipPath>
</defs>
	 
<g id="beeldmerk" clip-path="url(#clipPathMasker)">
	 
<rect id="achtergrond_zwart" fill="#000000" width="110" height="110" />
	 
<path id="tekst_wit" fill="#ffffff"
       d="m 44.46875,6.0625 c -0.386344,0.012288 -0.770268,0.06084 -1.15625,0.15625 -1.315519,0.3267063 -2.654221,1.3773537 -2.28125,2.875 0.332494,1.347304 1.251842,1.58741 2.125,1.625 0.873157,0.04048 1.71309,-0.113489 1.875,0.53125 0.16191,0.653413 -0.407846,0.923721 -0.96875,1.0625 -0.494403,0.12143 -1.233574,0.11978 -1.6875,0.09375 L 42.25,13.875 c 0.74016,0.06072 1.558437,0.023 2.28125,-0.15625 1.546819,-0.384531 2.740407,-1.37348 2.3125,-3.09375 C 46.600885,9.653554 45.938922,9.053275 44.0625,9.09375 43.215363,9.122663 42.97564,8.9366975 42.90625,8.65625 c -0.109868,-0.442355 0.135516,-0.8456588 1,-1.0625 0.37008,-0.089625 1.028173,-0.117438 1.53125,-0.0625 L 45.625,6.125 C 45.234682,6.07874 44.855094,6.0502125 44.46875,6.0625 z M 66.28125,6.25 c -1.045052,0.025885 -2.037108,0.5017653 -2.3125,1.625 -0.329602,1.3473038 0.370383,1.9667867 1.125,2.40625 0.754617,0.442355 1.565268,0.69901 1.40625,1.34375 -0.159019,0.653414 -0.779955,0.607528 -1.34375,0.46875 -0.494403,-0.11854 -1.140932,-0.453312 -1.53125,-0.6875 l -0.78125,1.25 c 0.627401,0.398987 1.339688,0.758245 2.0625,0.9375 1.549711,0.378749 3.077876,0.03277 3.5,-1.6875 0.237083,-0.974338 -0.06729,-1.786549 -1.75,-2.625 -0.763281,-0.3671838 -0.91314,-0.6570525 -0.84375,-0.9375 0.109868,-0.44236 0.510516,-0.6798088 1.375,-0.46875 0.372971,0.092519 0.987019,0.3729112 1.40625,0.65625 L 69.40625,7.375 C 68.75861,6.9268625 68.084465,6.56582 67.3125,6.375 66.982898,6.2947688 66.629601,6.2413716 66.28125,6.25 z M 55,6.8125 c -0.997483,0 -1.8125,0.8179237 -1.8125,1.8125 0,0.9974675 0.815018,1.8125 1.8125,1.8125 0.997481,0 1.8125,-0.8150325 1.8125,-1.8125 0,-0.9945763 -0.815019,-1.8125 -1.8125,-1.8125 z m -21.75,3.25 c -0.510758,0.05078 -1.055255,0.217384 -1.59375,0.5 -2.162657,1.136245 -2.624818,3.31455 -1.65625,5.15625 0.965678,1.8417 3.024844,2.664604 5.1875,1.53125 2.153983,-1.133355 2.621927,-3.283298 1.65625,-5.125 C 36.117322,10.743726 34.782273,9.9101694 33.25,10.0625 z m 42.75,0 c -1.215963,0.133493 -2.240201,0.880187 -2.84375,2.03125 -0.965677,1.841701 -0.503515,4.020005 1.65625,5.15625 2.153981,1.130462 4.221821,0.279201 5.1875,-1.5625 0.968569,-1.8417 0.497733,-3.994538 -1.65625,-5.125 C 77.532754,10.136407 76.729578,9.9824045 76,10.0625 z m 0.90625,1.5625 c 0.247789,0.02593 0.483113,0.125678 0.71875,0.25 0.954112,0.50018 1.387737,1.543938 0.65625,2.9375 C 77.549764,16.206064 76.451221,16.437679 75.5,15.9375 74.554561,15.440211 74.115154,14.393564 74.84375,13 c 0.548614,-1.045171 1.319132,-1.452792 2.0625,-1.375 z m -43.8125,0.03125 c 0.748247,-0.07901 1.513886,0.298579 2.0625,1.34375 0.731487,1.390673 0.297862,2.437321 -0.65625,2.9375 -0.942549,0.494398 -2.081014,0.265673 -2.8125,-1.125 -0.731488,-1.393562 -0.286297,-2.443104 0.65625,-2.9375 0.238528,-0.125045 0.500584,-0.192413 0.75,-0.21875 z m -8.65625,3.4375 -1.46875,1.15625 3.09375,3.8125 -5.375,-1.8125 -1.65625,1.625 5.28125,5.15625 c 0.361408,-0.370074 0.752029,-0.73524 1.125,-1.09375 L 22.125,20.5 l 5.21875,1.71875 c 0.482839,-0.410553 0.996923,-0.831327 1.5,-1.21875 L 24.4375,15.09375 z m 62.1875,0.8125 -4.65625,5.71875 c 1.220108,0.985903 2.395541,2.043133 3.5,3.15625 l 1.125,-1.125 c -0.725704,-0.734366 -1.503503,-1.442674 -2.28125,-2.125 l 3.8125,-4.375 -1.5,-1.25 z M 16.84375,26.875 c -0.579775,-0.0052 -1.145822,0.268061 -1.5,0.78125 -0.566687,0.821104 -0.352365,1.936214 0.46875,2.5 0.821115,0.566678 1.933315,0.352354 2.5,-0.46875 0.566685,-0.821104 0.352365,-1.933322 -0.46875,-2.5 -0.307918,-0.212504 -0.652135,-0.309383 -1,-0.3125 z m 76.3125,0 c -0.347865,0.0031 -0.692082,0.1 -1,0.3125 -0.818224,0.566678 -1.035435,1.678896 -0.46875,2.5 0.566686,0.821104 1.678885,1.035428 2.5,0.46875 0.821117,-0.563786 1.035436,-1.678896 0.46875,-2.5 -0.354178,-0.513189 -0.920225,-0.786445 -1.5,-0.78125 z M 8.375,36.1875 7.65625,38 l 6.0625,5.34375 c 0.173475,-0.612936 0.363002,-1.211129 0.5625,-1.8125 l -1.3125,-1.0625 c 0.274669,-0.792191 0.556963,-1.568905 0.875,-2.34375 l 1.6875,0.0625 c 0.257321,-0.607154 0.526267,-1.219802 0.8125,-1.8125 L 8.375,36.1875 z m 93.28125,0.0625 -6.875,2.71875 c 0.211062,0.520418 0.437069,1.0988 0.625,1.625 l 6.96875,-2.5 L 101.65625,36.25 z M 9.5,37.71875 l 2.90625,0.25 c -0.205279,0.517526 -0.405819,1.039192 -0.59375,1.5625 L 9.5,37.75 l 0,-0.03125 z m 94.84375,7.65625 -6.875,3.5625 c 0.09541,0.664979 0.186393,1.33213 0.25,2 l 7.5,1.78125 -0.0937,-1.84375 -5.71875,-1.15625 0,-0.03125 5.28125,-2.375 -0.34375,-1.9375 z M 7.0625,46.46875 c -1.0034787,0.180763 -1.5669592,1.255334 -1.71875,2.5 l -0.3125,-0.03125 -0.25,3 7.40625,0.4375 c 0.03469,-0.566678 0.10132,-1.123714 0.15625,-1.6875 L 9.5625,50.40625 c 0.00578,-0.0665 0.011011,-0.180059 0.03125,-0.28125 0.09252,-0.494398 0.701892,-0.859509 1.34375,-1.09375 0.529099,-0.193711 1.65625,-0.5 1.65625,-0.5 0.09252,-0.641848 0.18184,-1.281195 0.34375,-1.9375 0,0 -1.953676,0.688981 -2.65625,1.09375 -0.448144,0.257317 -0.6911899,0.392044 -0.96875,0.71875 L 9.28125,48.375 c -0.02313,-1.136245 -0.6860194,-1.83107 -1.75,-1.90625 -0.1619101,-0.01193 -0.3253959,-0.02582 -0.46875,0 z M 7.625,48.3125 c 0.7199216,0.08095 0.802042,0.776395 0.75,1.21875 -0.028912,0.257319 -0.07062,0.535496 -0.09375,0.78125 l -1.75,-0.15625 c 0.028912,-0.292012 0.033588,-0.574868 0.0625,-0.84375 0.083846,-0.74015 0.444326,-1.0665 1.03125,-1 z m 90.34375,9.375 c -0.318037,0.670762 -0.56663,1.4161 -0.65625,2.15625 -0.190823,1.581493 0.304618,3.070191 2.0625,3.28125 0.99748,0.118539 1.77595,-0.261829 2.40625,-2.03125 0.27178,-0.800865 0.55462,-0.9722 0.84375,-0.9375 0.45103,0.05493 0.73197,0.399431 0.625,1.28125 -0.0463,0.38164 -0.23745,1.017721 -0.46875,1.46875 l 1.25,0.6875 c 0.3643,-0.696782 0.62335,-1.426558 0.71875,-2.21875 0.16191,-1.347304 -0.34553,-2.971213 -1.875,-3.15625 -1.37912,-0.164799 -1.90305,0.636635 -2.25,1.4375 -0.34406,0.803757 -0.52829,1.64056 -1.1875,1.5625 -0.667877,-0.08095 -0.69439,-0.705898 -0.625,-1.28125 0.06072,-0.50307 0.31496,-1.208665 0.5,-1.625 l -1.34375,-0.625 z m -91.3125,0.375 -1.8125,0.125 L 5.5,63.90625 7.34375,63.59375 C 7.2367736,63.006834 7.149238,62.40809 7.0625,61.8125 l 5.46875,-0.78125 c -0.07806,-0.555113 -0.16093,-1.129497 -0.21875,-1.6875 l -5.5,0.5625 C 6.7488924,59.293314 6.696727,58.672545 6.65625,58.0625 z m 6.40625,10.21875 c -0.347718,-0.03587 -0.711551,0.02921 -1.125,0.1875 -0.939657,0.355619 -1.456386,1.078453 -1.1875,2.9375 0.130107,0.83556 -0.01236,1.114662 -0.28125,1.21875 -0.427905,0.164798 -0.8694623,-0.04233 -1.1875,-0.875 -0.1358889,-0.355619 -0.24711,-0.991147 -0.25,-1.5 L 7.625,70.21875 c 0.00289,0.78641 0.088766,1.569458 0.375,2.3125 0.482839,1.26635 1.685157,2.45558 3.125,1.90625 1.295286,-0.497287 1.41314,-1.439354 1.34375,-2.3125 -0.0665,-0.873145 -0.306229,-1.700422 0.3125,-1.9375 0.627401,-0.239971 0.94808,0.300203 1.15625,0.84375 0.182152,0.474159 0.28359,1.20233 0.3125,1.65625 l 1.46875,-0.0625 c -0.02891,-0.743042 -0.171505,-1.521967 -0.4375,-2.21875 -0.427183,-1.116729 -1.175596,-2.017393 -2.21875,-2.125 z m 82.34375,1.125 C 95.218319,69.93245 95.02067,70.479582 94.8125,71 l 5.125,2.0625 c -0.228409,0.569569 -0.470103,1.160747 -0.71875,1.71875 l 1.6875,0.75 2.03125,-5.40625 -1.75,-0.5625 c -0.17926,0.569568 -0.36011,1.152074 -0.5625,1.71875 l -5.21875,-1.875 z M 19.09375,78.46875 11.625,80.40625 12.59375,82 18.15625,80.375 14.625,84.9375 15.8125,86.5 20.21875,80.125 c -0.396101,-0.546439 -0.75492,-1.092465 -1.125,-1.65625 z m 71.6875,0.1875 c -0.309363,0.465485 -0.642039,0.95233 -0.96875,1.40625 L 95.78125,84.375 96.9375,82.75 90.78125,78.65625 z M 24.5625,85.25 l -1.125,1.09375 c 0.728595,0.734366 1.472253,1.442675 2.25,2.125 l -3.78125,4.34375 1.5,1.3125 4.65625,-5.71875 c -1.223,-0.985902 -2.39265,-2.043134 -3.5,-3.15625 z m 59.5,1.28125 c -0.410557,0.378749 -0.853345,0.763598 -1.28125,1.125 L 86.375,91.875 c -0.468383,0.398987 -0.957553,0.811643 -1.4375,1.1875 L 86.09375,94.5 90.40625,90.6875 89.125,89.375 c -0.425014,0.419226 -0.870139,0.81398 -1.3125,1.21875 l -3.75,-4.0625 z m -51.375,5.125 L 31.875,93 c 0.881833,0.537765 1.768082,1.057091 2.6875,1.53125 l -2.65625,5.15625 1.78125,0.875 3.15625,-6.6875 C 35.424146,93.210023 34.029039,92.471571 32.6875,91.65625 z m 43,0.90625 c -0.491512,0.268883 -1.031064,0.563856 -1.53125,0.8125 l 3.3125,6.625 1.75,-0.9375 -3.53125,-6.5 z m -6.0625,3.5 L 69.25,97.5 c -0.760399,0.254427 -1.509286,0.5048 -2.28125,0.71875 l -0.5625,-1.875 c -1.416713,0.390314 -2.832733,0.725889 -4.28125,0.96875 l 0.25,1.5625 c 0.887615,-0.150343 1.792442,-0.334094 2.78125,-0.5625 l 0.28125,1.25 c -0.928092,0.21684 -1.741385,0.355441 -2.5625,0.5 l 0.25,1.4375 c 0.867375,-0.15323 1.681898,-0.33698 2.65625,-0.5625 l 0.3125,1.21875 c -1.072655,0.24864 -2.034323,0.42895 -3,0.59375 l 0.3125,1.84375 5.875,-1.375 1.46875,-4.65625 -1.125,-2.5 z m -25.65625,0.375 -1.9375,7.15625 1.9375,0.46875 1.65625,-7.21875 C 45.078554,96.719427 44.509414,96.58206 43.96875,96.4375 z M 68.875,99.15625 68.09375,102.09375 68,102.125 67.3125,99.59375 c 0.494404,-0.135887 1.050749,-0.281375 1.5625,-0.4375 z M 55,99.5625 c -0.997482,0 -1.8125,0.81504 -1.8125,1.8125 0,0.99458 0.815017,1.8125 1.8125,1.8125 0.997481,0 1.8125,-0.81792 1.8125,-1.8125 0,-0.99746 -0.815019,-1.8125 -1.8125,-1.8125" />
	   
<path id="zon_goud" fill="#e4c300"
       d="m 49.75,5.25 c -0.525856,0.054725 -1.041617,0.1478531 -1.5625,0.21875 l 2.03125,30.125 L 38,7.96875 c -0.491991,0.1779175 -0.984076,0.3697208 -1.46875,0.5625 l 9.1875,28.75 L 27.25,13.40625 c -0.444635,0.297138 -0.878082,0.595389 -1.3125,0.90625 L 41.75,40.03125 18.125,21.25 c -0.36233,0.395833 -0.712901,0.811375 -1.0625,1.21875 L 38.53125,43.625 11.09375,31.0625 c -0.252453,0.46224 -0.480615,0.935306 -0.71875,1.40625 L 36.3125,47.90625 6.625,42.25 c -0.1345571,0.511953 -0.2251593,1.044269 -0.34375,1.5625 l 28.875,8.78125 -30.125,1.59375 C 5.0268681,54.460166 5,54.726289 5,55 c 0,0.273711 0.026868,0.539834 0.03125,0.8125 l 30.125,1.59375 -28.875,8.78125 C 6.3998407,66.705731 6.4904429,67.238047 6.625,67.75 L 36.3125,62.09375 10.375,77.53125 c 0.238135,0.470944 0.466297,0.94401 0.71875,1.40625 L 38.53125,66.375 17.0625,87.53125 c 0.349599,0.407375 0.70017,0.822917 1.0625,1.21875 L 41.75,69.96875 25.9375,95.6875 c 0.434418,0.310861 0.867865,0.609112 1.3125,0.90625 l 18.46875,-23.875 -9.1875,28.75 c 0.484674,0.19278 0.976759,0.38458 1.46875,0.5625 l 12.21875,-27.625 -2.03125,30.125 c 0.520883,0.0709 1.036644,0.16405 1.5625,0.21875 L 55,75 l 5.25,29.75 c 0.525856,-0.0547 1.041617,-0.14785 1.5625,-0.21875 L 59.78125,74.40625 72,102.03125 c 0.491991,-0.17792 0.984076,-0.36972 1.46875,-0.5625 l -9.1875,-28.75 18.46875,23.875 c 0.444635,-0.297138 0.878082,-0.595389 1.3125,-0.90625 L 68.25,69.96875 91.875,88.75 c 0.36233,-0.395833 0.712901,-0.811375 1.0625,-1.21875 L 71.46875,66.375 98.90625,78.9375 c 0.252453,-0.46224 0.480615,-0.935306 0.71875,-1.40625 L 73.6875,62.09375 103.375,67.75 c 0.13456,-0.511953 0.22516,-1.044269 0.34375,-1.5625 l -28.875,-8.78125 30.125,-1.59375 C 104.97305,55.539834 105,55.273711 105,55 c 0,-0.273711 -0.0269,-0.539834 -0.0312,-0.8125 l -30.125,-1.59375 28.875,-8.78125 c -0.11635,-0.508434 -0.21203,-1.028856 -0.34375,-1.53125 l -29.6875,5.625 25.9375,-15.4375 C 99.386865,31.997806 99.158703,31.52474 98.90625,31.0625 L 71.46875,43.625 92.9375,22.46875 C 92.587901,22.061375 92.23733,21.645833 91.875,21.25 L 68.25,40.03125 84.0625,14.3125 C 83.628082,14.001639 83.194635,13.703388 82.75,13.40625 l -18.46875,23.875 9.1875,-28.75 C 72.984076,8.3384708 72.491991,8.1466675 72,7.96875 l -12.21875,27.625 2.03125,-30.125 C 61.291617,5.3978531 60.775856,5.304725 60.25,5.25 L 55,35 49.75,5.25" />
	   
<path id="wapen_rood" fill="#db2f36"
       d="m 61.856751,61.856257 c -0.560902,0.572459 -1.344431,0.928078 -2.211807,0.928078 l -1.818597,0 c -1.020612,0 -1.925573,0.494398 -2.489367,1.254785 l -0.670771,0 c -0.563794,-0.760388 -1.468755,-1.254785 -2.489368,-1.254785 l -1.818596,0 c -1.70873,0 -3.09653,-1.384889 -3.09653,-3.093594 l 0,-12.42931" />
	   
<path id="wapen_wit" fill="#ffffff"
       d="m 47.262581,47.262299 15.47976,0 0,12.426418 c 0,0.844234 -0.338276,1.610404 -0.884722,2.168408" />
	   
<path id="wapen_zwart" fill="#000000"
       d="m 63.548422,59.64506 c 0,2.156842 -1.746316,3.903134 -3.903188,3.903134 l -1.821489,0 c -0.954113,0 -1.775229,0.581132 -2.12507,1.408018 l -1.396474,0 c -0.349842,-0.826886 -1.168066,-1.408018 -2.12507,-1.408018 l -1.818597,0 c -2.156874,0 -3.903189,-1.746292 -3.903189,-3.903134 l 0,-13.189698 17.093077,0 0,13.189698 z m -1.595971,-11.59375 -13.901136,0 0,11.59375 c 0,1.275024 1.032177,2.307185 2.307219,2.307185 l 1.818597,0 c 1.11024,0 2.090375,0.462594 2.798732,1.205635 l 0.04915,0 c 0.711247,-0.743041 1.691381,-1.205635 2.798731,-1.205635 l 1.821488,0 c 1.275042,0 2.307218,-1.032161 2.307218,-2.307185 l 0,-11.59375" />
	   
</g>

</svg>