<?xml version="1.0" encoding="utf-8"?>
<!-- Generator: Adobe Illustrator 25.4.1, SVG Export Plug-In . SVG Version: 6.00 Build 0)  -->
<svg version="1.1" id="UU_logo_00000053514214534494832170000007015106250065614513_"
	 xmlns="http://www.w3.org/2000/svg" xmlns:xlink="http://www.w3.org/1999/xlink" x="0px" y="0px" viewBox="0 0 198.4252 54"
	 style="enable-background:new 0 0 198.4252 54;" xml:space="preserve">
<style type="text/css">
	.st0{fill:#FFCD00;}
	.st1{clip-path:url(#SVGID_00000092424773194424993740000000553285065450677394_);}
	.st2{clip-path:url(#SVGID_00000014616976505155798180000017472895400848683404_);fill:#FFFFFF;}
	.st3{fill:#C00A35;}
	.st4{fill:#FFFFFF;}
</style>
<g>
	<g>
		<path d="M71.9,11.4h5.5v0.8h-0.1c-1.7,0-1.9,0.7-1.9,1.7v5.2c0,4.7-3.4,5.6-5.9,5.6c-3.8,0-6.2-1.6-6.2-4.9v-6.3
			c0-1.1-0.3-1.4-1.5-1.4h-0.4v-0.8H68v0.8h-0.4c-0.9,0-1.5,0.4-1.5,1.4v6.3c0,2.6,1.9,3.5,3.8,3.5c2.8,0,4.1-1.6,4.1-3.9v-5.1
			c0-1.5-0.4-2.2-1.7-2.2h-0.4C71.9,12.2,71.9,11.4,71.9,11.4z M87.2,22.6c0,1,0.4,1.2,1.2,1.2v0.7h-5v-0.7c0.9-0.1,1.2-0.7,1.2-2.4
			v-1.8c0-1.7-0.5-2.3-1.3-2.3c-0.7,0-1.3,0.3-2.2,0.9v4.3c0,0.9,0.4,1.3,1.2,1.3h0.2v0.7h-5.3v-0.7h0.1c0.9,0,1.2-0.4,1.2-1.5v-4.1
			c0-0.5-0.3-0.7-1-0.9l-0.4-0.1v-0.5l3.6-1.2h0.4v1.9c1.5-1,2.9-1.6,3.9-1.6c1.5,0,2.2,1.1,2.2,3.6L87.2,22.6L87.2,22.6z
			 M95.1,24.5h-5.3v-0.7H90c0.9,0,1.2-0.4,1.2-1.5v-4c0-0.6-0.1-0.7-0.7-0.9l-0.7-0.3v-0.5l3.6-1.2h0.4v7.1c0,0.9,0.4,1.3,1.3,1.3
			L95.1,24.5L95.1,24.5z M94.1,12.1c0,0.8-0.8,1.4-1.7,1.4c-1,0-1.7-0.6-1.7-1.4c0-0.8,0.8-1.4,1.7-1.4
			C93.4,10.7,94.1,11.3,94.1,12.1z M95.3,15.9h5.3v0.7h-0.7c-0.4,0-0.6,0.4-0.3,1.2l1.9,4.2l1.6-3.7c0.5-1.1,0.2-1.5-1.2-1.7v-0.7
			h4.2v0.7c-1.1,0.1-1.4,0.4-1.8,1.3l-3,6.8H100l-3-6.8c-0.4-0.9-0.7-1.2-1.6-1.3v-0.7C95.4,15.9,95.3,15.9,95.3,15.9z M114.6,22.1
			c-1.2,1.7-2.9,2.7-4.5,2.7c-2.3,0-3.9-1.8-3.9-4.3c0-2.8,1.9-4.7,4.5-4.7c1.1,0,2,0.4,2.7,1c1.2,1.2,0.7,2.4,1.4,2.8v0.6H109
			c0.2,1.7,1.3,3.1,2.6,3.1c0.8,0,1.5-0.4,2.6-1.5L114.6,22.1z M111.9,19.3c0-1.6-0.6-2.6-1.5-2.6s-1.6,1.1-1.5,2.6H111.9z
			 M121.8,24.5h-5.9v-0.7h0.1c0.9,0,1.2-0.4,1.2-1.5v-3.4c0-0.9-0.1-1.2-0.8-1.4l-0.6-0.2v-0.5l3.4-1.3h0.4v2.4l0,0
			c0.8-1.5,1.1-2.1,1.8-2.1c0.1,0,0.3,0,0.4,0.1l1.7,0.6c-0.2,0.9-0.6,1.6-1,2.2c-0.7-0.3-1.4-0.5-1.7-0.5c-0.4,0-0.8,0.3-1.2,0.9
			v3.4c0,1,0.3,1.4,1.4,1.4h0.5C121.8,23.8,121.8,24.5,121.8,24.5z M125.1,22h0.7c0.4,1.2,1.3,1.8,2.2,1.8c0.6,0,1.1-0.4,1.1-1
			c0-1.5-4-2-4-4.5c0-1.6,1.3-2.7,3.3-2.7c0.8,0,1.5,0.1,2.4,0.4v2.3h-0.7c-0.4-1.2-1.1-1.8-2-1.8c-0.5,0-1,0.3-1,0.8
			c0,1.7,4.1,1.8,4.1,4.7c0,1.6-1.1,2.7-2.7,2.7c-1.5,0-1.9-0.3-2.2-0.3c-0.1,0-0.2,0.1-0.4,0.3h-0.6L125.1,22z M138.3,24.5H133
			v-0.7h0.2c0.9,0,1.2-0.4,1.2-1.5v-4c0-0.6-0.1-0.7-0.7-0.9l-0.7-0.3v-0.5l3.6-1.2h0.4v7.1c0,0.9,0.4,1.3,1.3,1.3V24.5L138.3,24.5z
			 M137.4,12.1c0,0.8-0.8,1.4-1.7,1.4c-1,0-1.7-0.6-1.7-1.4c0-0.8,0.8-1.4,1.7-1.4C136.7,10.7,137.4,11.3,137.4,12.1z M143.1,22.2
			c0,0.8,0.4,1.1,1,1.1c0.5,0,1-0.3,1.6-1.1l0.3,0.6c-0.6,1.1-1.9,1.9-3.1,1.9c-1.4,0-2.4-0.8-2.4-2.6V17h-1.1v-0.5
			c1.3-0.5,2.7-2.1,3.1-3.2h0.6v2.6h2.8l-0.3,1.2h-2.4v5.1H143.1z M155.4,22.1c-1.2,1.7-2.9,2.7-4.5,2.7c-2.3,0-3.9-1.8-3.9-4.3
			c0-2.8,1.9-4.7,4.5-4.7c1.1,0,2,0.4,2.7,1c1.2,1.2,0.7,2.4,1.4,2.8v0.6h-5.8c0.2,1.7,1.3,3.1,2.6,3.1c0.8,0,1.5-0.4,2.6-1.5
			L155.4,22.1z M152.7,19.3c0-1.6-0.6-2.6-1.5-2.6s-1.6,1.1-1.5,2.6H152.7z M161.8,24.5h-5.3v-0.7h0.2c0.9,0,1.2-0.4,1.2-1.5v-4
			c0-0.6-0.1-0.7-0.7-0.9l-0.7-0.3v-0.5l3.6-1.2h0.4v7.1c0,0.9,0.4,1.3,1.3,1.3V24.5L161.8,24.5z M160.8,12.1c0,0.8-0.8,1.4-1.7,1.4
			c-1,0-1.7-0.6-1.7-1.4c0-0.8,0.8-1.4,1.7-1.4C160.1,10.7,160.8,11.3,160.8,12.1z M166.6,22.2c0,0.8,0.4,1.1,1,1.1
			c0.5,0,1-0.3,1.6-1.1l0.3,0.6c-0.6,1.1-1.9,1.9-3.1,1.9c-1.4,0-2.4-0.8-2.4-2.6V17h-1.1v-0.5c1.3-0.5,2.7-2.1,3.1-3.2h0.6v2.6h2.8
			l-0.3,1.2h-2.4L166.6,22.2L166.6,22.2z"/>
		<path d="M71.9,29.3h5.5v0.8h-0.1c-1.7,0-1.9,0.7-1.9,1.7V37c0,4.7-3.4,5.6-5.9,5.6c-3.8,0-6.2-1.6-6.2-4.9v-6.3
			c0-1.1-0.3-1.4-1.5-1.4h-0.4v-0.8H68V30h-0.4c-0.9,0-1.5,0.4-1.5,1.4v6.3c0,2.6,1.9,3.5,3.8,3.5c2.8,0,4.1-1.6,4.1-3.9v-5.1
			c0-1.5-0.4-2.2-1.7-2.2h-0.4V29.3L71.9,29.3z M80.7,40.1c0,0.8,0.4,1.1,1,1.1c0.5,0,1-0.3,1.6-1.1l0.3,0.6
			c-0.6,1.1-1.9,1.9-3.1,1.9c-1.4,0-2.4-0.8-2.4-2.6v-5H77v-0.6c1.3-0.5,2.7-2.1,3.1-3.2h0.6v2.6h2.8L83.1,35h-2.4V40.1z M90.4,42.4
			h-5.9v-0.7h0.1c0.9,0,1.2-0.4,1.2-1.5v-3.4c0-0.9-0.1-1.2-0.8-1.4l-0.6-0.2v-0.5l3.5-1.3h0.4v2.4l0,0c0.8-1.5,1.1-2.1,1.8-2.1
			c0.1,0,0.3,0,0.4,0.1l1.7,0.6c-0.3,0.9-0.6,1.6-1,2.2c-0.7-0.3-1.4-0.5-1.7-0.5c-0.4,0-0.8,0.3-1.2,0.9v3.4c0,1,0.3,1.4,1.4,1.4
			h0.5v0.6H90.4z M101.5,40c-1.2,1.7-2.9,2.7-4.5,2.7c-2.3,0-3.9-1.8-3.9-4.3c0-2.8,1.9-4.7,4.5-4.7c1.1,0,2,0.4,2.7,1
			c1.2,1.2,0.7,2.4,1.4,2.8V38h-5.8c0.2,1.7,1.3,3.1,2.6,3.1c0.8,0,1.5-0.4,2.6-1.5L101.5,40z M98.8,37.2c0-1.6-0.6-2.6-1.5-2.6
			s-1.6,1.1-1.5,2.6H98.8z M111.7,40.4c-1,1.5-2.4,2.3-4.3,2.3c-2.6,0-4.4-1.7-4.4-4.2c0-2.8,2.4-4.9,5.5-4.9c1.8,0,3.2,0.8,3.2,1.8
			c0,0.6-0.4,1.1-1.1,1.1c-1.5,0-1.8-1.9-3-1.9c-1.1,0-1.8,1.3-1.8,3.2c0,2.3,1.1,3.8,2.6,3.8c1,0,1.8-0.5,2.7-1.5L111.7,40.4z
			 M116.3,40.3c0,1.3,0.4,1.5,1.1,1.5h0.2v0.7h-5.3v-0.7h0.3c1.1,0,1.2-0.4,1.2-1.5V31c0-0.6-0.1-0.8-0.7-0.9l-0.6-0.2v-0.5l3.3-1
			h0.5v6.9c1.2-0.8,2.7-1.6,3.8-1.6c1.5,0,2.3,1.2,2.3,3.7v2.8c0,1.2,0.1,1.6,0.9,1.6h0.2v0.7h-5v-0.7h0.2c0.9,0,1.1-0.3,1.1-1.5V37
			c0-1.1-0.5-1.9-1.4-1.9c-0.6,0-1.4,0.3-2.2,0.8L116.3,40.3L116.3,40.3z M128.1,40.1c0,0.8,0.4,1.1,1,1.1c0.5,0,1-0.3,1.6-1.1
			l0.3,0.6c-0.6,1.1-1.9,1.9-3.1,1.9c-1.4,0-2.4-0.8-2.4-2.6v-5h-1.1v-0.6c1.3-0.5,2.7-2.1,3.1-3.2h0.6v2.6h2.8l-0.3,1.2h-2.4
			L128.1,40.1L128.1,40.1z"/>
	</g>
	<g>
		<polygon class="st0" points="22.727,1.001 23.2357,0.3495 24.0976,0.2445 24.7478,0.7556 29.0471,0.7556 29.6986,0.2445 
			30.5581,0.3495 31.0687,1 35.2442,2.0296 35.9977,1.689 36.8077,1.9969 37.1473,2.752 40.9501,4.7464 41.7634,4.5983 
			42.4757,5.0885 42.6249,5.9048 45.8446,8.7538 46.6686,8.8063 47.2419,9.4534 47.1934,10.2794 49.6323,13.8126 50.4224,14.0594 
			50.8266,14.827 50.5808,15.6161 52.1054,19.637 52.8147,20.0646 53.0207,20.9061 52.5941,21.6135 53.1102,25.8813 
			53.6951,26.4662 53.6951,27.3349 53.1102,27.9179 52.5941,32.1819 53.0227,32.8892 52.8166,33.7327 52.1073,34.1583 
			50.5827,38.1792 50.8285,38.9683 50.4243,39.7379 49.6362,39.9828 47.1934,43.5198 47.2419,44.3478 46.6686,44.9949 
			45.8446,45.0435 42.6293,47.8926 42.4796,48.7068 41.7682,49.2005 40.954,49.0489 37.1463,51.0468 36.8077,51.8027 
			35.9977,52.1098 35.2432,51.7697 31.0731,52.7997 30.563,53.4508 29.7024,53.5538 29.0524,53.0426 24.752,53.0426 
			24.1015,53.5538 23.2411,53.4508 22.7314,52.7997 18.5559,51.7697 17.8024,52.1098 16.9924,51.8027 16.6518,51.0468 
			12.8495,49.0528 12.0362,49.2025 11.3225,48.7088 11.1743,47.8945 7.9545,45.0435 7.13,44.9949 6.5548,44.3478 6.6039,43.5198 
			4.1648,39.9886 3.3744,39.7418 2.9721,38.9742 3.2179,38.1831 1.6928,34.1622 0.9854,33.7366 0.7774,32.8931 1.205,32.1876 
			0.6866,27.9179 0.1021,27.3349 0.1021,26.4662 0.6866,25.8813 1.204,21.6194 0.7759,20.91 0.9839,20.0685 1.6914,19.6409 
			3.216,15.62 2.9696,14.8309 3.3724,14.0633 4.1619,13.8165 6.6049,10.2794 6.5548,9.4534 7.13,8.8063 7.9545,8.7538 
			11.1699,5.9066 11.3181,5.0924 12.0323,4.6003 12.8451,4.7503 16.6528,2.752 16.9924,1.9969 17.8024,1.689 18.5559,2.0296 		"/>
		<g>
			<g>
				<g>
					<g>
						<defs>
							<path id="SVGID_1_" d="M26.9,53.6995c14.8012,0,26.799-11.9987,26.799-26.7999c0-14.7993-11.9979-26.8004-26.799-26.8004
								c-14.8021,0-26.8008,12.0011-26.8008,26.8004C0.0992,41.7008,12.098,53.6995,26.9,53.6995z"/>
						</defs>
						<clipPath id="SVGID_00000008833936507011859370000016978996314831330441_">
							<use xlink:href="#SVGID_1_"  style="overflow:visible;"/>
						</clipPath>
						<path style="clip-path:url(#SVGID_00000008833936507011859370000016978996314831330441_);" d="M29.7418,0.023L26.9,16.1797
							L24.0573,0.023 M30.5751,0.1235l-1.1083,16.3672L36.0934,1.484 M36.8718,1.7793l-4.9902,15.6285L41.9063,4.4215
							 M42.5947,4.8981l-8.5856,13.9771L46.8484,8.6683 M47.4022,9.2922l-11.68,11.5187l14.91-6.8409 M51.02,14.7123l-14.0962,8.384
							l16.1124-3.0706 M53.2384,20.84l-15.6957,4.7691l16.3798,0.8726 M53.9225,27.3174L37.5427,28.192l15.6957,4.7692
							 M53.0362,33.7715L36.9238,30.701L51.02,39.0888 M50.6322,39.8312l-14.91-6.8409l11.68,11.5168 M46.8484,45.1329
							L34.0092,34.9221l8.5856,13.9791 M41.9063,49.3793l-10.0247-12.986l4.9902,15.6271 M29.7418,53.7753L26.9,37.6195
							l-2.8427,16.1558 M23.2251,53.6762l1.1082-16.3676l-6.6265,15.0052 M16.9274,52.0204l4.9912-15.6271l-10.0247,12.986
							 M11.2034,48.9012l8.5876-13.9791L6.9488,45.1329 M6.3969,44.5071l11.6809-11.5168L3.1669,39.8312 M2.7778,39.0888
							l14.0976-8.3879L0.7609,33.7715 M0.5607,32.9612l15.6966-4.7692l-16.3816-0.8745 M-0.1243,26.4818l16.3816-0.8726
							L0.5607,20.84 M0.7609,20.0257l16.1144,3.0706l-14.0976-8.384 M3.1669,13.97l14.9109,6.8409L6.3969,9.2922 M6.9488,8.6683
							L19.791,18.8751l-8.5876-13.977 M11.8939,4.4215l10.0247,12.9864L16.9274,1.7793 M17.7067,1.4839l6.6265,15.0067
							L23.2251,0.1235 M36.0935,52.3138l-6.6266-15.0052l1.1083,16.3676"/>
					</g>
				</g>
			</g>
			<g>
				<g>
					<g>
						<defs>
							<path id="SVGID_00000005262468675428049460000004390344209913688254_" d="M26.9,53.6995
								c14.8012,0,26.799-11.9987,26.799-26.7999c0-14.7993-11.9979-26.8004-26.799-26.8004
								c-14.8021,0-26.8008,12.0011-26.8008,26.8004C0.0992,41.7008,12.098,53.6995,26.9,53.6995z"/>
						</defs>
						<clipPath id="SVGID_00000074411285988991560270000012233598026599258498_">
							<use xlink:href="#SVGID_00000005262468675428049460000004390344209913688254_"  style="overflow:visible;"/>
						</clipPath>
						<path style="clip-path:url(#SVGID_00000074411285988991560270000012233598026599258498_);fill:#FFFFFF;" d="M44.6485,6.6219
							l-2.03,2.3341c0.4169,0.3673,0.8216,0.7463,1.2108,1.1388l-0.6029,0.5986c-0.5932-0.5986-1.2171-1.1602-1.8716-1.6908
							l2.4935-3.057 M51.9091,16.8424l-3.6837,1.4712c0.1146,0.2798,0.2284,0.5752,0.3275,0.8551l3.7314-1.3255 M53.7582,24.6802
							l-3.0512-0.616l-0.0019-0.0098l2.8238-1.2865l-0.1788-1.0359l-3.6887,1.924c0.0534,0.3596,0.0923,0.7152,0.1274,1.0747
							l4.0297,0.9484 M52.6,35.0057l-0.9455-0.2973c-0.0962,0.3051-0.2012,0.6102-0.3081,0.9133l-2.7937-1.0008
							c-0.0991,0.2798-0.209,0.5771-0.3217,0.857l2.7471,1.1097c-0.1205,0.3052-0.2498,0.6103-0.3829,0.9057l0.9124,0.4062
							 M49.3749,41.7727l-3.3019-2.1961c-0.1642,0.2488-0.344,0.5131-0.5179,0.756l3.2076,2.3204 M45.8835,46.0269l-0.6997-0.7075
							c-0.2249,0.2274-0.4576,0.449-0.6962,0.6666l-2.0056-2.1844c-0.2201,0.2021-0.4547,0.4139-0.6846,0.6084l1.9167,2.2621
							c-0.2498,0.2137-0.5044,0.4198-0.7609,0.6238l0.6175,0.7774 M39.887,50.5162l-1.906-3.4807
							c-0.2624,0.1478-0.5413,0.2934-0.81,0.4296l1.7681,3.5526 M31.3996,53.476l-0.1603-0.9834
							c0.5169-0.0875,1.032-0.1905,1.6082-0.3246l-0.1618-0.6452c-0.5218,0.1185-0.9713,0.2118-1.4362,0.2915l-0.1249-0.7541
							c0.4407-0.0777,0.8799-0.1671,1.3769-0.2818l-0.1666-0.6607c-0.5292,0.1244-1.0034,0.2176-1.479,0.2973l-0.1399-0.8376
							c0.7754-0.1302,1.545-0.3012,2.3039-0.513l0.292,1.0028c0.4129-0.1146,0.8221-0.2429,1.2287-0.3809l0.2012-0.7735
							l0.5961,1.339l-0.7798,2.4916 M33.9197,52.1428l0.4198-1.58c-0.275,0.0856-0.5704,0.173-0.8352,0.2469l0.3669,1.3449
							L33.9197,52.1428z M20.993,53.2l0.8789-3.8713c-0.2939-0.0661-0.6029-0.138-0.8934-0.2157l-1.0296,3.8286 M15.4741,51.313
							l1.6908-3.5798c-0.7628-0.3576-1.5047-0.754-2.2242-1.1914l-0.4412,0.7269c0.4727,0.2877,0.9562,0.5577,1.4489,0.8123
							l-1.4275,2.7655 M9.967,47.8634l2.492-3.0668c-0.6545-0.5286-1.2803-1.0922-1.8736-1.6908L9.983,43.7064
							c0.3906,0.3945,0.7948,0.7715,1.2117,1.1369l-2.0352,2.3263 M4.1638,41.3723l2.9837-0.8764l0.0058,0.0078l-1.9021,2.4487
							l0.6443,0.8279l2.3671-3.4126c-0.2113-0.2915-0.4154-0.5889-0.6122-0.8902L3.642,40.5153 M0.3727,31.6805l0.9799-0.1769
							c-0.0568-0.3148-0.1079-0.6335-0.153-0.9503l2.9384-0.4139c-0.0422-0.2954-0.0826-0.6122-0.1141-0.9096l-2.9487,0.2973
							c-0.0344-0.3285-0.0622-0.6568-0.0831-0.9814l-0.9853,0.0622 M-0.0408,25.2652l3.9943,0.2312
							c0.0185-0.3051,0.0433-0.6083,0.0733-0.9115l-1.4862-0.1458c0.0034-0.033,0.0058-0.0952,0.0165-0.1477
							c0.049-0.2643,0.3716-0.4684,0.7166-0.5927c0.2833-0.105,0.8925-0.2702,0.8925-0.2702
							c0.0496-0.344,0.1025-0.6763,0.1885-1.0281c0,0-1.0451,0.3615-1.4211,0.5791c-0.24,0.1361-0.3731,0.2041-0.5218,0.379
							l-0.0185-0.0039c-0.0121-0.6103-0.3726-0.995-0.9416-1.0339c-0.6942-0.0504-1.0694,0.5772-1.1621,1.341l-0.172-0.0136
							 M1.5067,23.3198c0.3853,0.0428,0.4329,0.4062,0.4048,0.6433c-0.0156,0.138-0.034,0.2954-0.0462,0.4276l-0.9499-0.0952
							c0.0165-0.1574,0.0194-0.3012,0.0354-0.4451C0.9951,23.452,1.1929,23.2829,1.5067,23.3198z M1.5296,17.7908l3.2426,2.8627
							c0.0927-0.3305,0.1923-0.6569,0.2997-0.9795l-0.7035-0.5675c0.1468-0.4257,0.3056-0.8454,0.4761-1.2594l0.9013,0.0409
							c0.1389-0.3227,0.2852-0.6472,0.4382-0.964l-4.2813-0.1166 M2.5169,17.6431l1.5551,0.1283
							c-0.1107,0.2798-0.2166,0.5558-0.3172,0.8376l-1.2419-0.9542L2.5169,17.6431z M7.6242,8.0678l2.833,2.7616
							c0.1939-0.2002,0.3907-0.3925,0.5913-0.585L9.2848,8.4001l2.7918,0.9231c0.2599-0.2196,0.5252-0.4333,0.7948-0.6413
							l-2.3603-3.1756L9.724,6.1262l1.6714,2.0484L8.5016,7.2069 M31.1018,4.2018c0.3367,0.2137,0.72,0.4003,1.1078,0.4945
							c0.8294,0.2036,1.6539,0.0325,1.8797-0.8872c0.1274-0.5237-0.0374-0.9693-0.9386-1.4182
							c-0.4092-0.1972-0.4849-0.3531-0.4485-0.5038c0.0573-0.2376,0.2706-0.3625,0.7351-0.2493
							c0.1982,0.0491,0.5228,0.1968,0.7487,0.3489l0.4426-0.6214c-0.3464-0.2405-0.7113-0.4305-1.1262-0.5335
							c-0.7055-0.1729-1.6038,0.002-1.8016,0.8041c-0.1758,0.722,0.2104,1.0563,0.6156,1.293
							c0.4042,0.2366,0.8332,0.375,0.7492,0.7195c-0.0865,0.3512-0.4188,0.3318-0.7205,0.259
							c-0.2648-0.0637-0.6131-0.2464-0.8226-0.3726L31.1018,4.2018z M36.6279,3.9074c-0.5184,0.9887-0.2658,2.1548,0.8935,2.763
							c1.1538,0.6044,2.2567,0.1516,2.7761-0.8376c0.5169-0.9873,0.2648-2.1529-0.8892-2.7586
							C38.2497,2.4668,37.1463,2.9201,36.6279,3.9074z M37.5427,4.3864c0.3916-0.7473,0.9839-0.874,1.4892-0.6083
							c0.5107,0.2677,0.7424,0.8279,0.3509,1.5766c-0.3907,0.7443-0.9854,0.8725-1.495,0.6044
							C37.3814,5.6948,37.1507,5.1332,37.5427,4.3864z M49.9365,28.3475c-0.1729,0.3575-0.31,0.7598-0.3576,1.1563
							c-0.101,0.8473,0.1682,1.6461,1.1088,1.7588c0.5334,0.0641,0.9551-0.1535,1.2933-1.1
							c0.1477-0.4334,0.2934-0.5267,0.448-0.5073c0.24,0.0273,0.3907,0.2255,0.3342,0.6977
							c-0.0233,0.206-0.1321,0.5461-0.2565,0.7871l0.6725,0.3654c0.1943-0.3751,0.342-0.756,0.3925-1.1836
							c0.0875-0.721-0.1943-1.5936-1.0134-1.6908c-0.7405-0.0894-1.0242,0.3362-1.2118,0.7638
							c-0.1847,0.4314-0.2711,0.8745-0.6239,0.8318c-0.3595-0.0427-0.3789-0.375-0.342-0.6841
							c0.032-0.2701,0.1691-0.6374,0.2702-0.8609L49.9365,28.3475z M5.8381,36.3466c-0.016-0.3984-0.0811-0.8181-0.224-1.1913
							c-0.3056-0.7988-0.9123-1.3779-1.7986-1.0398c-0.5033,0.1924-0.7759,0.5792-0.633,1.5761
							c0.07,0.451-0.0145,0.6005-0.1594,0.6549c-0.2279,0.0895-0.4527-0.0155-0.6219-0.4606
							c-0.0738-0.1943-0.136-0.5441-0.1389-0.8142L1.498,35.0581c0.0005,0.4237,0.049,0.8318,0.2022,1.2322
							c0.2594,0.6763,0.9138,1.3176,1.6859,1.0222c0.6942-0.2643,0.7497-0.7715,0.7137-1.2399
							c-0.0355-0.4664-0.1652-0.8998,0.1671-1.0261c0.3362-0.1283,0.5102,0.1554,0.621,0.447
							c0.0971,0.2526,0.1458,0.6453,0.1608,0.8901L5.8381,36.3466z M13.4987,5.8348c0.5179,0.9892,1.6208,1.442,2.78,0.8356
							c1.1554-0.6083,1.4061-1.7724,0.8882-2.7611c-0.5194-0.9873-1.6218-1.4415-2.7762-0.8351
							C13.2324,3.6819,12.9798,4.8475,13.4987,5.8348z M14.4116,5.3567c-0.3921-0.7468-0.1594-1.3079,0.3464-1.5728
							c0.5102-0.2697,1.1024-0.1414,1.4954,0.6045c0.3921,0.7467,0.1609,1.3064-0.3498,1.5765
							C15.3964,6.2293,14.8032,6.1011,14.4116,5.3567z M20.0704,4.8494c0.3964,0.033,0.822,0.0195,1.2103-0.0757
							c0.8289-0.2066,1.4789-0.7405,1.2501-1.6607c-0.1301-0.5233-0.4829-0.841-1.4892-0.8186
							c-0.4532,0.014-0.5941-0.088-0.6311-0.2386c-0.0593-0.2366,0.0718-0.4465,0.5358-0.5616
							c0.1987-0.0491,0.5534-0.0686,0.8246-0.0394l0.103-0.7569c-0.4188-0.051-0.8304-0.051-1.2453,0.0514
							c-0.704,0.1769-1.4206,0.7483-1.2209,1.5504c0.1792,0.721,0.6767,0.8381,1.1456,0.859
							c0.4679,0.0199,0.9124-0.0558,0.9989,0.2882c0.0856,0.3517-0.2171,0.4893-0.5189,0.5646
							c-0.2638,0.0651-0.6578,0.0651-0.9017,0.0519L20.0704,4.8494z M26.9,3.0124c0.5349,0,0.9689-0.4328,0.9689-0.9683
							c0-0.5344-0.4339-0.9674-0.9689-0.9674c-0.5358,0-0.9688,0.4329-0.9688,0.9674C25.9312,2.5795,26.3642,3.0124,26.9,3.0124z
							 M46.5617,13.3345c0.3022,0.4411,0.9076,0.5519,1.3468,0.2468c0.4402-0.3032,0.5491-0.9056,0.2459-1.3448
							c-0.3022-0.4412-0.9047-0.5501-1.3449-0.2469C46.3684,12.2928,46.2585,12.8953,46.5617,13.3345z M25.9312,51.7561
							c0,0.5363,0.4329,0.9678,0.9688,0.9678c0.5349,0,0.9689-0.4314,0.9689-0.9678S27.435,50.7863,26.9,50.7863
							C26.3642,50.7864,25.9312,51.2197,25.9312,51.7561z M7.2364,13.3345c0.3037-0.4392,0.1938-1.0417-0.2463-1.3449
							c-0.4402-0.3032-1.0432-0.1943-1.3469,0.2469c-0.3031,0.4392-0.1928,1.0416,0.2474,1.3448
							C6.3298,13.8864,6.9332,13.7756,7.2364,13.3345z"/>
					</g>
				</g>
			</g>
		</g>
		<g>
			<path class="st3" d="M30.5751,30.5727c-0.3022,0.309-0.7215,0.4995-1.1865,0.4995H28.413c-0.5461,0-1.031,0.2643-1.3336,0.6723
				h-0.3595c-0.3017-0.4081-0.7876-0.6723-1.3336-0.6723h-0.9746c-0.9168,0-1.6597-0.7424-1.6597-1.6597v-6.6621"/>
			<path class="st4" d="M22.7518,22.7504h8.2965v6.6621c0,0.4547-0.1798,0.8609-0.4732,1.1602"/>
			<path d="M31.4812,29.3911c0,1.1544-0.9376,2.0892-2.0926,2.0892H28.413c-0.512,0-0.9513,0.3129-1.1393,0.756h-0.7482
				c-0.1871-0.4431-0.6263-0.756-1.1393-0.756h-0.9746c-1.1559,0-2.0927-0.9347-2.0927-2.0892V22.317h9.1623
				C31.4812,22.317,31.4812,29.3911,31.4812,29.3911z M30.6256,23.176h-7.4511v6.2151c0,0.6782,0.5538,1.234,1.237,1.234h0.9746
				c0.5946,0,1.1203,0.2488,1.5003,0.6453h0.0262c0.3814-0.3965,0.9067-0.6453,1.5003-0.6453h0.9756
				c0.6836,0,1.237-0.5558,1.237-1.234V23.176H30.6256z"/>
		</g>
	</g>
</g>
</svg>
